<svg xmlns="http://www.w3.org/2000/svg" version="1.1" xmlns:xlink="http://www.w3.org/1999/xlink" xmlns:svgjs="http://svgjs.dev/svgjs" width="2000" height="629" viewBox="0 0 2000 629"><g transform="matrix(1,0,0,1,0.21333333333336668,-0.3397932627120781)"><svg viewBox="0 0 375 118" data-background-color="#ffffff" preserveAspectRatio="xMidYMid meet" height="629" width="2000" xmlns="http://www.w3.org/2000/svg" xmlns:xlink="http://www.w3.org/1999/xlink"><g id="tight-bounds" transform="matrix(1,0,0,1,-0.03976000000000113,0.06374500000003991)"><svg viewBox="0 0 375.07953 117.87250999999992" height="117.87250999999992" width="375.07953"><g><svg></svg></g><g><svg viewBox="0 0 375.07953 117.87250999999992" height="117.87250999999992" width="375.07953"><g transform="matrix(1,0,0,1,-10.22024,-67.95383000000001)"><path d="M10.22 179.246v-111.292h375.08v111.292l-95.714 0 0-3.741h91.973v-103.81h-367.598v103.81l91.973 0 0 3.741z" fill="#89939e" fill-rule="nonzero" stroke="none" stroke-width="1" stroke-linecap="butt" stroke-linejoin="miter" stroke-miterlimit="10" stroke-dasharray="" stroke-dashoffset="0" font-family="none" font-weight="none" font-size="none" text-anchor="none" style="mix-blend-mode: normal" data-fill-palette-color="tertiary"></path><g><path d="M120.025 171.618v0 9.235l1.283 0.237c0.042 0.169 0.042 0.38 0 0.634v0c-0.665-0.032-1.346-0.048-2.044-0.048v0c-0.486 0-1.172 0.011-2.059 0.032v0c-0.063-0.201-0.063-0.407 0-0.618v0l1.251-0.174c0.042-0.581 0.063-1.251 0.064-2.012v0-9.076l-1.299-0.159c-0.042-0.158-0.042-0.359 0-0.602v0c0.729-0.053 1.637-0.164 2.724-0.332v0c0.095 0.106 0.148 0.211 0.159 0.317v0c-0.053 0.275-0.079 1.13-0.079 2.566zM124.935 175.768v0 5.085l1.283 0.237c0.011 0.053 0.019 0.1 0.025 0.143 0.004 0.042 0.006 0.09 0.007 0.142v0c0 0.053-0.002 0.108-0.007 0.165-0.006 0.059-0.015 0.12-0.025 0.184v0c-0.665-0.032-1.346-0.048-2.043-0.048v0c-0.243 0-0.535 0.003-0.878 0.01-0.344 0.004-0.738 0.012-1.182 0.022v0c-0.032-0.095-0.048-0.195-0.047-0.301v0c0-0.095 0.016-0.201 0.047-0.317v0l1.252-0.174c0.021-0.296 0.037-0.61 0.047-0.944 0.011-0.332 0.016-0.687 0.016-1.068v0-3.374c0-0.697-0.016-1.214-0.047-1.552v0l-1.252-0.158c-0.021-0.053-0.032-0.143-0.031-0.27v0c0-0.053 0-0.106 0-0.158 0-0.053 0.011-0.111 0.031-0.174v0c0.718-0.042 1.626-0.153 2.725-0.333v0c0.095 0.106 0.148 0.211 0.158 0.317v0c-0.053 0.296-0.079 1.151-0.079 2.566zM122.622 170.113v0c-0.021-0.053-0.032-0.109-0.031-0.168 0-0.057 0-0.112 0-0.165v0c0-0.285 0.119-0.515 0.358-0.69 0.237-0.173 0.529-0.26 0.877-0.26v0c0.327 0 0.595 0.097 0.802 0.291 0.205 0.196 0.307 0.464 0.307 0.802v0c0 0.275-0.118 0.496-0.355 0.665-0.239 0.169-0.543 0.253-0.912 0.254v0c-0.253 0-0.477-0.063-0.672-0.191-0.196-0.127-0.321-0.306-0.374-0.538zM129.56 171.301v0 2.265h2.234c0.021 0.127 0.032 0.222 0.031 0.285v0c0 0.095-0.011 0.206-0.031 0.333v0l-2.234 0.332v4.357c0 0.781 0.072 1.333 0.216 1.653 0.142 0.323 0.365 0.485 0.671 0.485v0c0.275 0 0.702-0.111 1.283-0.333v0c0.106 0.095 0.18 0.275 0.222 0.539v0c-0.317 0.19-0.557 0.329-0.719 0.418-0.165 0.091-0.371 0.171-0.618 0.241-0.249 0.068-0.511 0.101-0.785 0.101v0c-0.528 0-0.958-0.204-1.29-0.611-0.334-0.406-0.501-1.025-0.5-1.86v0-5.18l-1.109-0.142c-0.021-0.106-0.032-0.195-0.032-0.269v0c0-0.084 0.011-0.201 0.032-0.349v0c0.296-0.053 0.552-0.146 0.77-0.279 0.215-0.131 0.397-0.316 0.545-0.554 0.148-0.237 0.262-0.448 0.342-0.634 0.078-0.184 0.175-0.45 0.291-0.798v0c0.095-0.032 0.211-0.048 0.349-0.048v0c0.127 0 0.238 0.016 0.332 0.048zM135.199 171.301v0 2.265h2.234c0.021 0.127 0.032 0.222 0.032 0.285v0c0 0.095-0.011 0.206-0.032 0.333v0l-2.234 0.332v4.357c0 0.781 0.071 1.333 0.213 1.653 0.144 0.323 0.369 0.485 0.674 0.485v0c0.275 0 0.702-0.111 1.283-0.333v0c0.106 0.095 0.18 0.275 0.222 0.539v0c-0.317 0.19-0.558 0.329-0.722 0.418-0.163 0.091-0.367 0.171-0.615 0.241-0.249 0.068-0.511 0.101-0.785 0.101v0c-0.528 0-0.959-0.204-1.293-0.611-0.332-0.406-0.497-1.025-0.497-1.86v0-5.18l-1.109-0.142c-0.021-0.106-0.032-0.195-0.032-0.269v0c0-0.084 0.011-0.201 0.032-0.349v0c0.296-0.053 0.552-0.146 0.77-0.279 0.215-0.131 0.397-0.316 0.545-0.554 0.148-0.237 0.261-0.448 0.339-0.634 0.08-0.184 0.178-0.45 0.294-0.798v0c0.095-0.032 0.211-0.048 0.349-0.048v0c0.127 0 0.238 0.016 0.332 0.048zM140.949 171.618v0 9.235l1.283 0.237c0.042 0.169 0.042 0.38 0 0.634v0c-0.665-0.032-1.346-0.048-2.043-0.048v0c-0.486 0-1.172 0.011-2.059 0.032v0c-0.063-0.201-0.063-0.407 0-0.618v0l1.251-0.174c0.042-0.581 0.063-1.251 0.064-2.012v0-9.076l-1.299-0.159c-0.042-0.158-0.042-0.359 0-0.602v0c0.729-0.053 1.637-0.164 2.724-0.332v0c0.095 0.106 0.148 0.211 0.159 0.317v0c-0.053 0.275-0.079 1.13-0.08 2.566zM149.867 177.193v0h-4.973c-0.095 2.693 0.713 4.039 2.423 4.04v0c0.729 0 1.473-0.322 2.234-0.967v0c0.158 0.095 0.28 0.259 0.364 0.491v0c-0.729 0.813-1.653 1.22-2.772 1.22v0c-2.577 0-3.865-1.515-3.865-4.546v0c0-1.436 0.38-2.553 1.14-3.352 0.76-0.796 1.647-1.194 2.662-1.194v0c1.109 0 1.906 0.385 2.391 1.156 0.486 0.771 0.729 1.774 0.729 3.01v0c-0.106 0.084-0.216 0.132-0.333 0.142zM147.048 173.519v0c-0.549 0-1.017 0.285-1.404 0.855-0.384 0.57-0.619 1.299-0.703 2.186v0h1.964c0.781 0 1.341-0.048 1.679-0.143v0c0-0.866-0.132-1.566-0.396-2.1-0.264-0.532-0.644-0.798-1.14-0.798zM157.502 171.618v2.582c0.876-0.876 1.832-1.315 2.867-1.315v0c1.024 0 1.825 0.385 2.402 1.156 0.574 0.771 0.862 1.811 0.861 3.121v0c0 1.489-0.401 2.663-1.203 3.523-0.803 0.862-1.8 1.293-2.994 1.292v0c-1.035 0-1.848-0.37-2.44-1.109v0l-0.332 1.078c-0.201 0.032-0.37 0.032-0.507 0v0l-0.159-1.743v-10.375l-1.298-0.159c-0.042-0.158-0.042-0.359 0-0.602v0c0.729-0.053 1.637-0.164 2.724-0.332v0c0.095 0.106 0.148 0.211 0.159 0.317v0c-0.053 0.275-0.079 1.13-0.08 2.566zM159.783 181.106v0c0.655 0 1.195-0.304 1.622-0.912 0.429-0.606 0.643-1.464 0.643-2.573v0c0-0.222-0.005-0.391-0.015-0.507v0c0-1.045-0.209-1.853-0.628-2.423-0.416-0.57-0.941-0.855-1.574-0.856v0c-0.37 0-0.771 0.118-1.204 0.355-0.433 0.239-0.808 0.564-1.125 0.976v0 4.847c0.359 0.412 0.702 0.697 1.03 0.855 0.327 0.158 0.744 0.238 1.251 0.238zM167.624 175.768v0 5.085l1.283 0.237c0.011 0.053 0.018 0.1 0.022 0.143 0.006 0.042 0.009 0.09 0.01 0.142v0c0 0.053-0.003 0.108-0.01 0.165-0.004 0.059-0.012 0.12-0.022 0.184v0c-0.665-0.032-1.346-0.048-2.043-0.048v0c-0.243 0-0.536 0.003-0.881 0.01-0.342 0.004-0.735 0.012-1.178 0.022v0c-0.032-0.095-0.048-0.195-0.048-0.301v0c0-0.095 0.016-0.201 0.048-0.317v0l1.251-0.174c0.021-0.296 0.037-0.61 0.047-0.944 0.011-0.332 0.016-0.687 0.016-1.068v0-3.374c0-0.697-0.016-1.214-0.047-1.552v0l-1.252-0.158c-0.021-0.053-0.032-0.143-0.031-0.27v0c0-0.053 0-0.106 0-0.158 0-0.053 0.011-0.111 0.031-0.174v0c0.718-0.042 1.626-0.153 2.725-0.333v0c0.095 0.106 0.148 0.211 0.158 0.317v0c-0.053 0.296-0.079 1.151-0.079 2.566zM165.311 170.113v0c-0.021-0.053-0.032-0.109-0.031-0.168 0-0.057 0-0.112 0-0.165v0c0-0.285 0.118-0.515 0.355-0.69 0.239-0.173 0.532-0.26 0.88-0.26v0c0.327 0 0.595 0.097 0.802 0.291 0.205 0.196 0.307 0.464 0.307 0.802v0c0 0.275-0.119 0.496-0.358 0.665-0.237 0.169-0.54 0.253-0.909 0.254v0c-0.253 0-0.478-0.063-0.675-0.191-0.194-0.127-0.318-0.306-0.371-0.538zM172.249 171.301v0 2.265h2.234c0.021 0.127 0.032 0.222 0.032 0.285v0c0 0.095-0.011 0.206-0.032 0.333v0l-2.234 0.332v4.357c0 0.781 0.072 1.333 0.216 1.653 0.142 0.323 0.365 0.485 0.672 0.485v0c0.275 0 0.702-0.111 1.283-0.333v0c0.106 0.095 0.18 0.275 0.221 0.539v0c-0.317 0.19-0.558 0.329-0.722 0.418-0.163 0.091-0.369 0.171-0.618 0.241-0.247 0.068-0.508 0.101-0.782 0.101v0c-0.528 0-0.959-0.204-1.293-0.611-0.332-0.406-0.497-1.025-0.497-1.86v0-5.18l-1.109-0.142c-0.021-0.106-0.032-0.195-0.032-0.269v0c0-0.084 0.011-0.201 0.032-0.349v0c0.296-0.053 0.551-0.146 0.767-0.279 0.218-0.131 0.4-0.316 0.548-0.554 0.148-0.237 0.262-0.448 0.342-0.634 0.078-0.184 0.175-0.45 0.291-0.798v0c0.095-0.032 0.211-0.048 0.349-0.048v0c0.127 0 0.238 0.016 0.332 0.048zM179.457 177.447v0c0-0.634 0.093-1.228 0.279-1.784 0.184-0.553 0.45-1.036 0.798-1.447 0.348-0.412 0.769-0.737 1.261-0.976 0.49-0.237 1.041-0.355 1.653-0.355v0c0.602 0 1.151 0.118 1.648 0.355 0.496 0.239 0.922 0.564 1.277 0.976 0.353 0.412 0.624 0.894 0.814 1.447 0.19 0.555 0.285 1.15 0.285 1.784v0c0 0.655-0.097 1.257-0.292 1.806-0.196 0.549-0.471 1.026-0.823 1.432-0.355 0.408-0.78 0.724-1.277 0.95-0.496 0.228-1.04 0.342-1.632 0.342v0c-0.623 0-1.18-0.111-1.669-0.332-0.492-0.222-0.909-0.533-1.251-0.935-0.344-0.401-0.608-0.88-0.793-1.435-0.186-0.553-0.279-1.163-0.278-1.828zM181.769 174.532v0c-0.454 0.644-0.681 1.616-0.681 2.915v0c0 0.644 0.061 1.209 0.184 1.695 0.12 0.486 0.286 0.889 0.497 1.21 0.211 0.323 0.459 0.564 0.745 0.722 0.285 0.158 0.597 0.238 0.934 0.238v0c0.327 0 0.639-0.079 0.935-0.238 0.296-0.158 0.549-0.399 0.76-0.722 0.211-0.321 0.38-0.724 0.507-1.21 0.127-0.486 0.19-1.051 0.19-1.695v0c0-0.644-0.063-1.212-0.19-1.704-0.127-0.49-0.298-0.897-0.513-1.22-0.218-0.321-0.471-0.564-0.76-0.729-0.291-0.163-0.601-0.244-0.929-0.244v0c-0.655 0-1.214 0.327-1.679 0.982zM192.541 168.735v0c1.573 0 2.36 0.623 2.36 1.869v0c-0.222 0.232-0.75 0.343-1.584 0.333v0c-0.106-1.109-0.375-1.663-0.808-1.664v0c-0.401 0-0.684 0.319-0.849 0.957-0.163 0.64-0.244 1.805-0.244 3.494v0h2.233c0.063 0.201 0.063 0.407 0 0.618v0l-2.233 0.333v6.098l1.917 0.317c0.063 0.211 0.063 0.422 0 0.634v0c-0.665-0.032-1.484-0.048-2.456-0.048v0c-0.57 0-1.299 0.011-2.185 0.032v0c-0.084-0.19-0.084-0.396 0-0.618v0l1.156-0.253c0.042-0.56 0.063-1.204 0.063-1.933v0-4.388l-1.124-0.174c-0.063-0.211-0.063-0.417 0-0.618v0h1.124v-1.077c0-0.634 0.09-1.239 0.27-1.815 0.18-0.574 0.478-1.068 0.896-1.479 0.416-0.412 0.904-0.618 1.464-0.618zM205.324 177.193v0h-4.974c-0.095 2.693 0.713 4.039 2.423 4.04v0c0.729 0 1.473-0.322 2.234-0.967v0c0.158 0.095 0.28 0.259 0.364 0.491v0c-0.729 0.813-1.653 1.22-2.772 1.22v0c-2.577 0-3.865-1.515-3.865-4.546v0c0-1.436 0.38-2.553 1.141-3.352 0.76-0.796 1.647-1.194 2.661-1.194v0c1.109 0 1.906 0.385 2.392 1.156 0.486 0.771 0.729 1.774 0.728 3.01v0c-0.106 0.084-0.216 0.132-0.332 0.142zM202.504 173.519v0c-0.549 0-1.016 0.285-1.4 0.855-0.387 0.57-0.622 1.299-0.707 2.186v0h1.965c0.781 0 1.341-0.048 1.679-0.143v0c0-0.866-0.132-1.566-0.396-2.1-0.264-0.532-0.644-0.798-1.141-0.798zM214.099 173.962l-3.279 8.395h-0.332l-3.279-8.379-0.998-0.19c-0.042-0.169-0.042-0.38 0-0.634v0c0.581 0.042 1.209 0.063 1.885 0.064v0c0.602 0 1.241-0.016 1.916-0.048v0c0.063 0.211 0.063 0.417 0 0.618v0l-0.998 0.19 1.283 3.643c0.37 1.056 0.612 1.822 0.729 2.297v0h0.032c0.253-0.908 0.502-1.647 0.744-2.218v0l1.363-3.785-1.236-0.127c-0.042-0.169-0.042-0.38 0-0.634v0c0.581 0.042 1.135 0.063 1.663 0.064v0c0.444 0 1.008-0.016 1.695-0.048v0c0.063 0.211 0.063 0.417 0 0.618v0zM222.336 177.193v0h-4.974c-0.095 2.693 0.713 4.039 2.424 4.04v0c0.729 0 1.473-0.322 2.233-0.967v0c0.158 0.095 0.28 0.259 0.364 0.491v0c-0.729 0.813-1.653 1.22-2.772 1.22v0c-2.577 0-3.865-1.515-3.865-4.546v0c0-1.436 0.38-2.553 1.141-3.352 0.76-0.796 1.647-1.194 2.661-1.194v0c1.109 0 1.906 0.385 2.392 1.156 0.486 0.771 0.729 1.774 0.729 3.01v0c-0.106 0.084-0.216 0.132-0.333 0.142zM219.516 173.519v0c-0.549 0-1.016 0.285-1.4 0.855-0.387 0.57-0.622 1.299-0.706 2.186v0h1.964c0.781 0 1.341-0.048 1.679-0.143v0c0-0.866-0.132-1.566-0.396-2.1-0.264-0.532-0.644-0.798-1.141-0.798zM226.724 173.202v0l-0.032 1.631c0.264-0.486 0.631-0.932 1.102-1.34 0.469-0.406 0.914-0.608 1.337-0.608v0c0.327 0 0.618 0.037 0.872 0.111v0c0.084 0.137 0.127 0.317 0.126 0.538v0c0 0.348-0.074 0.697-0.221 1.046v0c-0.38-0.106-0.744-0.158-1.093-0.159v0c-0.866 0-1.579 0.422-2.139 1.268v0l-0.032 2.772v2.392l1.759 0.237c0.042 0.169 0.042 0.38 0 0.634v0c-0.665-0.032-1.426-0.048-2.281-0.048v0c-0.644 0-1.41 0.011-2.297 0.032v0c-0.063-0.201-0.063-0.407 0-0.618v0l1.251-0.174c0.042-0.581 0.063-1.251 0.064-2.012v0-4.34c0-0.211-0.016-0.407-0.048-0.586v0l-1.251-0.158c-0.042-0.158-0.042-0.359 0-0.602v0c0.729-0.053 1.637-0.164 2.724-0.333v0c0.095 0.106 0.148 0.211 0.159 0.317zM233.519 184.005v0l1.014-2.392-3.073-7.572-1.236-0.253c-0.053-0.211-0.053-0.422 0-0.634v0c0.581 0.042 1.288 0.063 2.123 0.064v0c0.75 0 1.463-0.016 2.138-0.048v0c0.063 0.211 0.063 0.417 0 0.618v0l-1.362 0.222 1.505 3.564c0.211 0.517 0.433 1.241 0.665 2.17v0h0.032c0.18-0.634 0.428-1.331 0.744-2.091v0l1.378-3.691-1.235-0.174c-0.042-0.169-0.042-0.38 0-0.634v0c0.581 0.042 1.146 0.063 1.695 0.064v0c0.465 0 1.04-0.016 1.726-0.048v0c0.063 0.211 0.063 0.417 0 0.618v0l-1.251 0.174-4.182 10.233c-0.222 0.528-0.47 0.924-0.744 1.188-0.275 0.264-0.639 0.396-1.093 0.396v0c-0.359 0-0.636-0.044-0.83-0.133-0.196-0.091-0.395-0.263-0.596-0.517v0c0.063-0.581 0.364-1.045 0.903-1.394v0c0.433 0.486 0.803 0.729 1.109 0.729v0c0.264 0 0.454-0.153 0.57-0.459zM242.611 171.301v0 2.265h2.234c0.021 0.127 0.032 0.222 0.031 0.285v0c0 0.095-0.011 0.206-0.031 0.333v0l-2.234 0.332v4.357c0 0.781 0.072 1.333 0.216 1.653 0.142 0.323 0.365 0.485 0.671 0.485v0c0.275 0 0.702-0.111 1.283-0.333v0c0.106 0.095 0.18 0.275 0.222 0.539v0c-0.317 0.19-0.557 0.329-0.719 0.418-0.165 0.091-0.371 0.171-0.618 0.241-0.249 0.068-0.511 0.101-0.785 0.101v0c-0.528 0-0.958-0.204-1.29-0.611-0.334-0.406-0.501-1.025-0.5-1.86v0-5.18l-1.109-0.142c-0.021-0.106-0.032-0.195-0.032-0.269v0c0-0.084 0.011-0.201 0.032-0.349v0c0.296-0.053 0.552-0.146 0.77-0.279 0.215-0.131 0.397-0.316 0.545-0.554 0.148-0.237 0.262-0.448 0.342-0.634 0.078-0.184 0.175-0.45 0.291-0.798v0c0.095-0.032 0.211-0.048 0.349-0.048v0c0.127 0 0.238 0.016 0.332 0.048zM246.856 178.904v-7.524c0-0.697-0.016-1.214-0.047-1.552v0l-1.251-0.159c-0.042-0.158-0.042-0.359 0-0.602v0c0.708-0.053 1.61-0.164 2.708-0.332v0c0.095 0.106 0.148 0.211 0.159 0.317v0c-0.053 0.275-0.079 1.13-0.08 2.566v0 2.994c0.781-1.077 1.721-1.616 2.82-1.616v0c0.655 0 1.214 0.164 1.679 0.491 0.465 0.327 0.697 0.887 0.697 1.679v0 5.687l1.283 0.237c0.042 0.169 0.042 0.38 0 0.634v0c-0.665-0.032-1.341-0.048-2.027-0.048v0c-0.486 0-1.172 0.011-2.06 0.032v0c-0.063-0.201-0.063-0.407 0-0.618v0l1.252-0.174c0.042-0.581 0.063-1.251 0.063-2.012v0-2.946c0-0.739-0.092-1.272-0.276-1.6-0.186-0.327-0.522-0.491-1.007-0.491v0c-0.401 0-0.821 0.148-1.258 0.444-0.439 0.296-0.828 0.723-1.166 1.283v0 5.259l1.284 0.237c0.042 0.169 0.042 0.38 0 0.634v0c-0.665-0.032-1.341-0.048-2.028-0.048v0c-0.486 0-1.172 0.011-2.059 0.032v0c-0.063-0.201-0.063-0.407 0-0.618v0l1.251-0.174c0.042-0.581 0.063-1.251 0.063-2.012zM258.372 175.768v0 5.085l1.283 0.237c0.011 0.053 0.019 0.1 0.026 0.143 0.004 0.042 0.006 0.09 0.006 0.142v0c0 0.053-0.002 0.108-0.006 0.165-0.006 0.059-0.015 0.12-0.026 0.184v0c-0.665-0.032-1.346-0.048-2.043-0.048v0c-0.243 0-0.535 0.003-0.878 0.01-0.344 0.004-0.738 0.012-1.181 0.022v0c-0.032-0.095-0.048-0.195-0.048-0.301v0c0-0.095 0.016-0.201 0.048-0.317v0l1.251-0.174c0.021-0.296 0.037-0.61 0.048-0.944 0.011-0.332 0.016-0.687 0.015-1.068v0-3.374c0-0.697-0.016-1.214-0.047-1.552v0l-1.251-0.158c-0.021-0.053-0.032-0.143-0.032-0.27v0c0-0.053 0-0.106 0-0.158 0-0.053 0.011-0.111 0.032-0.174v0c0.718-0.042 1.626-0.153 2.724-0.333v0c0.095 0.106 0.148 0.211 0.158 0.317v0c-0.053 0.296-0.079 1.151-0.079 2.566zM256.06 170.113v0c-0.021-0.053-0.032-0.109-0.032-0.168 0-0.057 0-0.112 0-0.165v0c0-0.285 0.119-0.515 0.358-0.69 0.237-0.173 0.529-0.26 0.877-0.26v0c0.327 0 0.595 0.097 0.802 0.291 0.205 0.196 0.307 0.464 0.307 0.802v0c0 0.275-0.118 0.496-0.355 0.665-0.239 0.169-0.543 0.253-0.912 0.254v0c-0.253 0-0.477-0.063-0.672-0.191-0.196-0.127-0.321-0.306-0.373-0.538zM267.053 178.904v-2.899c0-0.813-0.108-1.383-0.323-1.71-0.218-0.327-0.58-0.491-1.087-0.491v0c-0.781 0-1.568 0.586-2.36 1.758v0 5.291l1.283 0.237c0.042 0.169 0.042 0.38 0 0.634v0c-0.665-0.032-1.346-0.048-2.044-0.048v0c-0.486 0-1.172 0.011-2.059 0.032v0c-0.063-0.201-0.063-0.407 0-0.618v0l1.252-0.174c0.042-0.581 0.063-1.251 0.063-2.012v0-4.34c0-0.211-0.016-0.407-0.048-0.586v0l-1.251-0.158c-0.042-0.158-0.042-0.359 0-0.602v0c0.729-0.053 1.637-0.164 2.724-0.333v0c0.095 0.106 0.148 0.211 0.159 0.317v0c-0.053 0.275-0.079 0.744-0.079 1.41v0c0.834-1.151 1.774-1.727 2.819-1.727v0c1.637 0 2.455 0.776 2.455 2.328v0 5.64l1.284 0.237c0.042 0.169 0.042 0.38 0 0.634v0c-0.665-0.032-1.346-0.048-2.044-0.048v0c-0.486 0-1.172 0.011-2.059 0.032v0c-0.063-0.201-0.063-0.407 0-0.618v0l1.251-0.174c0.042-0.581 0.063-1.251 0.064-2.012zM271.979 181.835v0c0.095 0.042 0.174 0.132 0.238 0.269v0c-0.348 0.285-0.523 0.713-0.523 1.283v0c0 0.507 0.232 0.913 0.697 1.22 0.465 0.306 1.067 0.459 1.806 0.459v0c0.76 0 1.394-0.139 1.9-0.418 0.507-0.281 0.76-0.675 0.761-1.182v0c0-0.549-0.1-0.953-0.301-1.21-0.201-0.26-0.602-0.416-1.204-0.469v0l-2.962-0.269c-0.327-0.042-0.599-0.214-0.814-0.517-0.218-0.3-0.326-0.592-0.327-0.877v0l1.062-1.758c-0.486-0.275-0.852-0.639-1.1-1.093-0.249-0.454-0.374-0.919-0.374-1.394v0c0-0.898 0.333-1.621 0.998-2.17 0.665-0.549 1.431-0.824 2.297-0.824v0c0.834 0 1.568 0.222 2.202 0.665v0c0.053-1.447 0.591-2.196 1.616-2.249v0c0.275 0.063 0.412 0.29 0.412 0.681v0c0 0.211-0.021 0.444-0.064 0.697v0c-0.412 0.032-0.75 0.166-1.014 0.402-0.264 0.239-0.454 0.511-0.57 0.818v0c0.528 0.528 0.792 1.188 0.792 1.98v0c0 0.834-0.338 1.528-1.014 2.081-0.676 0.555-1.463 0.833-2.36 0.833v0c-0.475 0-0.903-0.063-1.283-0.19v0l-0.538 1.41 3.944 0.396c0.612 0.074 1.08 0.298 1.403 0.672 0.321 0.376 0.482 0.865 0.482 1.466v0c0 1.056-0.38 1.867-1.141 2.433-0.76 0.564-1.79 0.846-3.089 0.846v0c-1.077 0-1.917-0.195-2.518-0.586-0.602-0.391-0.903-0.913-0.903-1.568v0c0-0.444 0.143-0.836 0.428-1.178 0.285-0.344 0.639-0.564 1.061-0.659zM272.264 175.879v0c0 0.612 0.172 1.135 0.516 1.568 0.342 0.433 0.798 0.649 1.369 0.649v0c0.56 0 1.019-0.214 1.378-0.643 0.359-0.427 0.539-0.951 0.539-1.574v0c0-0.676-0.176-1.239-0.529-1.689-0.355-0.448-0.817-0.672-1.388-0.671v0c-0.539 0-0.987 0.227-1.346 0.681-0.359 0.454-0.539 1.014-0.539 1.679z" fill="#89939e" fill-rule="nonzero" stroke="none" stroke-width="1" stroke-linecap="butt" stroke-linejoin="miter" stroke-miterlimit="10" stroke-dasharray="" stroke-dashoffset="0" font-family="none" font-weight="none" font-size="none" text-anchor="none" style="mix-blend-mode: normal" data-fill-palette-color="secondary" id="text-1"></path></g></g><g transform="matrix(1,0,0,1,29.33176499999999,38.194141686436666)"><svg viewBox="0 0 316.416 41.48422662712658" height="41.48422662712658" width="316.416"><g><svg viewBox="0 0 316.416 41.48422662712658" height="41.48422662712658" width="316.416"><g><svg viewBox="0 0 316.416 41.48422662712658" height="41.48422662712658" width="316.416"><g><svg viewBox="0 0 316.416 41.48422662712658" height="41.48422662712658" width="316.416"><g id="textblocktransform"><svg viewBox="0 0 316.416 41.48422662712658" height="41.48422662712658" width="316.416" id="textblock"><g><svg viewBox="0 0 316.416 41.48422662712658" height="41.48422662712658" width="316.416"><g transform="matrix(1,0,0,1,0,0)"><svg width="316.416" viewBox="1.46 -31.74 312.81 41.019999999999996" height="41.48422662712658" data-palette-color="#383b3e"><path d="M38.13-28.03L38.13-29.3 30.32-29.3 19.78-5.42 8.45-29.3 1.46-29.3 1.46-28.03 5.37-28.03 5.37-1.27 1.46-1.27 1.46 0 11.23 0Q11.23-1.07 10.45-1.22L10.45-1.22Q10.21-1.27 9.96-1.27L9.96-1.27 7.32-1.27 7.32-22.27 18.02 0.24 19.04 0.24 30.32-24.9 30.32-1.27 26.42-1.27 26.42 0 38.13 0Q38.13-1.07 37.35-1.22L37.35-1.22Q37.11-1.27 36.87-1.27L36.87-1.27 34.23-1.27 34.23-28.03 38.13-28.03ZM44.63 7.76L44.63 7.76Q43.85 7.76 43.45 6.59L43.45 6.59Q42.92 5.13 42.43 4.79L42.43 4.79Q41.99 4.49 41.4 4.49L41.4 4.49Q39.84 4.49 39.6 5.86L39.6 5.86Q39.55 6.05 39.55 6.2L39.55 6.2Q39.55 8.06 41.7 8.89L41.7 8.89Q42.67 9.28 43.75 9.28L43.75 9.28Q47.6 9.28 50.44 4.54L50.44 4.54Q51.61 2.64 52.68 0L52.68 0 59.91-17.82Q60.4-19.19 60.98-19.38L60.98-19.38Q61.33-19.48 61.77-19.48L61.77-19.48Q62.74-19.48 62.89-20.02L62.89-20.02Q62.99-20.31 62.99-20.75L62.99-20.75 55.56-20.75 55.56-19.48 59.13-19.48 52.88-3.86 46.19-19.48 49.46-19.48 49.46-20.75 39.94-20.75 39.94-19.48 42.33-19.48 51.12 0Q48.39 6.45 45.99 7.47L45.99 7.47Q45.31 7.76 44.63 7.76ZM78.85-10.4L78.85-10.4Q78.85-17.97 83-19.63L83-19.63Q84.07-20.02 85.25-20.02L85.25-20.02Q90.67-20.02 91.55-13.18L91.55-13.18Q91.69-12.01 91.69-10.6L91.69-10.6Q91.69-2.39 87.2-0.98L87.2-0.98Q86.32-0.73 85.39-0.73L85.39-0.73Q80.46-0.73 79.19-6.59L79.19-6.59Q78.85-8.3 78.85-10.4ZM85.39-21.24L85.39-21.24Q80.71-21.24 77.58-18.02L77.58-18.02Q74.7-15.04 74.7-10.6L74.7-10.6Q74.7-4.44 79.19-1.37L79.19-1.37Q81.93 0.49 85.25 0.49L85.25 0.49Q89.93 0.49 93.01-2.83L93.01-2.83Q95.84-5.86 95.84-10.4L95.84-10.4Q95.84-16.55 91.3-19.53L91.3-19.53Q88.62-21.24 85.39-21.24ZM108.78-1.22L108.78-1.22 106.58-1.22 106.58-11.77Q106.73-16.31 109.8-18.31L109.8-18.31Q111.12-19.14 112.49-19.14L112.49-19.14Q115.47-19.14 116.54-16.36L116.54-16.36Q116.98-15.23 116.98-13.82L116.98-13.82 116.98-4.15Q116.98-1.9 115.71-1.46L115.71-1.46Q114.98-1.22 113.32-1.22L113.32-1.22 113.32 0 124.31 0Q124.31-1.07 123.57-1.17L123.57-1.17Q123.38-1.22 123.09-1.22L123.09-1.22 120.64-1.22 120.64-13.33Q120.64-18.21 117.28-20.31L117.28-20.31Q115.71-21.24 113.91-21.24L113.91-21.24Q110.29-21.24 107.95-18.36L107.95-18.36Q107.07-17.24 106.53-15.87L106.53-15.87 106.34-20.75 99.26-20.75 99.26-19.53 102.92-19.53 102.92-4.15Q102.92-1.9 101.65-1.46L101.65-1.46Q100.92-1.22 99.26-1.22L99.26-1.22 99.26 0 110 0Q110-1.07 109.27-1.17L109.27-1.17Q109.07-1.22 108.78-1.22ZM137.1-1.22L137.1-1.22 134.46-1.22 134.46-31.74 127.14-31.74 127.14-30.52 130.8-30.52 130.8-4.15Q130.8-1.9 129.53-1.46L129.53-1.46Q128.8-1.22 127.14-1.22L127.14-1.22 127.14 0 138.32 0Q138.32-1.07 137.59-1.17L137.59-1.17Q137.39-1.22 137.1-1.22ZM151.11-1.22L151.11-1.22 148.67-1.22 148.67-20.75 141.1-20.75 141.1-19.53 145-19.53 145-4.15Q145-1.9 143.49-1.42L143.49-1.42Q142.76-1.22 141.1-1.22L141.1-1.22 141.1 0 152.33 0Q152.33-1.07 151.6-1.17L151.6-1.17Q151.35-1.22 151.11-1.22ZM149.25-27.88L149.25-27.88Q149.25-29.59 147.74-30.32L147.74-30.32Q147.15-30.57 146.62-30.57L146.62-30.57Q144.91-30.57 144.17-29L144.17-29Q143.93-28.47 143.93-27.88L143.93-27.88Q143.93-26.07 145.54-25.39L145.54-25.39Q146.08-25.2 146.62-25.2L146.62-25.2Q148.32-25.2 149.01-26.76L149.01-26.76Q149.25-27.29 149.25-27.88ZM164.78-1.22L164.78-1.22 162.58-1.22 162.58-11.77Q162.73-16.31 165.8-18.31L165.8-18.31Q167.12-19.14 168.49-19.14L168.49-19.14Q171.47-19.14 172.54-16.36L172.54-16.36Q172.98-15.23 172.98-13.82L172.98-13.82 172.98-4.15Q172.98-1.9 171.71-1.46L171.71-1.46Q170.98-1.22 169.32-1.22L169.32-1.22 169.32 0 180.3 0Q180.3-1.07 179.57-1.17L179.57-1.17Q179.38-1.22 179.08-1.22L179.08-1.22 176.64-1.22 176.64-13.33Q176.64-18.21 173.27-20.31L173.27-20.31Q171.71-21.24 169.9-21.24L169.9-21.24Q166.29-21.24 163.95-18.36L163.95-18.36Q163.07-17.24 162.53-15.87L162.53-15.87 162.34-20.75 155.26-20.75 155.26-19.53 158.92-19.53 158.92-4.15Q158.92-1.9 157.65-1.46L157.65-1.46Q156.92-1.22 155.26-1.22L155.26-1.22 155.26 0 166 0Q166-1.07 165.27-1.17L165.27-1.17Q165.07-1.22 164.78-1.22ZM193.68-20.02L193.68-20.02Q197.1-20.02 198.22-17.14L198.22-17.14Q198.61-16.21 198.61-15.14L198.61-15.14Q198.61-12.7 196.27-12.16L196.27-12.16Q195.05-11.91 192.8-11.96L192.8-11.96 187.63-12.11Q187.87-17.72 191.29-19.43L191.29-19.43Q192.41-20.02 193.68-20.02ZM202.18-4.69L202.18-4.69 200.96-5.13Q199.25-1.42 195.44-0.93L195.44-0.93Q194.95-0.88 194.51-0.88L194.51-0.88Q189.38-0.88 188.07-6.98L188.07-6.98Q187.68-8.69 187.63-10.74L187.63-10.74 193.49-10.64Q199.44-10.55 201.15-11.77L201.15-11.77Q202.47-12.74 202.47-14.55L202.47-14.55Q202.47-17.87 199.1-19.82L199.1-19.82Q196.71-21.24 193.58-21.24L193.58-21.24Q187.48-21.24 184.84-16.16L184.84-16.16Q183.48-13.53 183.48-10.21L183.48-10.21Q183.48-4.15 187.82-1.22L187.82-1.22Q190.41 0.49 193.73 0.49L193.73 0.49Q199 0.49 201.49-3.32L201.49-3.32Q201.88-4 202.18-4.69ZM222.97-0.83L222.97-0.83Q226.34-0.83 227.51-2.88L227.51-2.88Q227.95-3.61 227.95-4.49L227.95-4.49Q227.95-6.54 224.98-8.01L224.98-8.01Q224.34-8.35 222.88-8.98L222.88-8.98Q218.87-10.64 217.55-12.11L217.55-12.11Q216.14-13.72 216.14-15.87L216.14-15.87Q216.14-19.24 219.85-20.61L219.85-20.61Q221.56-21.24 223.56-21.24L223.56-21.24Q226.78-21.24 229.13-19.87L229.13-19.87Q229.13-21.29 229.81-21.48L229.81-21.48Q230.1-21.53 230.44-21.53L230.44-21.53 230.44-15.43 229.17-15.43Q229.08-19.92 224.19-19.97L224.19-19.97Q220.53-19.97 219.65-17.82L219.65-17.82Q219.41-17.24 219.41-16.6L219.41-16.6Q219.41-14.5 222.44-13.04L222.44-13.04Q223.12-12.7 224.58-12.11L224.58-12.11Q228.54-10.5 229.86-9.03L229.86-9.03Q231.27-7.47 231.27-5.32L231.27-5.32Q231.27-1.37 227.07-0.05L227.07-0.05Q225.46 0.49 223.56 0.49L223.56 0.49Q220.04 0.44 217.46-1.27L217.46-1.27Q217.46 0 216.82 0.2L216.82 0.2Q216.53 0.24 216.14 0.24L216.14 0.24 216.14-7.18 217.5-7.18Q217.6-0.88 222.97-0.83ZM234.2-20.75L234.2-19.53 237.62-19.53 237.62-5.76Q237.96 0.34 243.23 0.54L243.23 0.54Q247.73 0.54 248.85-4.98L248.85-4.98Q248.85-5.03 248.85-5.08L248.85-5.08 247.53-5.32Q246.31-1.27 243.97-0.93L243.97-0.93Q241.33-1.03 241.28-4.69L241.28-4.69 241.28-19.53 248.85-19.53 248.85-20.75 241.28-20.75 241.28-26.42 237.62-25.39 237.62-20.75 234.2-20.75ZM255.19-10.4L255.19-10.4Q255.19-17.97 259.35-19.63L259.35-19.63Q260.42-20.02 261.59-20.02L261.59-20.02Q267.01-20.02 267.89-13.18L267.89-13.18Q268.04-12.01 268.04-10.6L268.04-10.6Q268.04-2.39 263.54-0.98L263.54-0.98Q262.67-0.73 261.74-0.73L261.74-0.73Q256.81-0.73 255.54-6.59L255.54-6.59Q255.19-8.3 255.19-10.4ZM261.74-21.24L261.74-21.24Q257.05-21.24 253.93-18.02L253.93-18.02Q251.04-15.04 251.04-10.6L251.04-10.6Q251.04-4.44 255.54-1.37L255.54-1.37Q258.27 0.49 261.59 0.49L261.59 0.49Q266.28 0.49 269.35-2.83L269.35-2.83Q272.19-5.86 272.19-10.4L272.19-10.4Q272.19-16.55 267.65-19.53L267.65-19.53Q264.96-21.24 261.74-21.24ZM286.54-1.22L286.54-1.22 283.02-1.22 283.02-10.94Q283.02-15.38 285.76-18.07L285.76-18.07Q286.83-19.09 287.57-19.14L287.57-19.14Q288.4-19.14 289.08-17.92L289.08-17.92Q289.86-16.55 290.54-16.36L290.54-16.36Q290.84-16.26 291.13-16.26L291.13-16.26Q292.59-16.26 292.99-17.68L292.99-17.68Q293.08-17.97 293.08-18.26L293.08-18.26Q293.08-20.46 290.84-20.95L290.84-20.95Q290.35-21.04 289.91-21.04L289.91-21.04Q286.98-21.04 284.68-18.55L284.68-18.55Q283.61-17.38 282.98-15.92L282.98-15.92 282.78-20.75 275.7-20.75 275.7-19.53 279.36-19.53 279.36-4.15Q279.36-1.9 278.09-1.46L278.09-1.46Q277.36-1.22 275.7-1.22L275.7-1.22 275.7 0 287.76 0Q287.76-1.07 287.03-1.17L287.03-1.17Q286.83-1.22 286.54-1.22ZM305.48-20.02L305.48-20.02Q308.9-20.02 310.02-17.14L310.02-17.14Q310.41-16.21 310.41-15.14L310.41-15.14Q310.41-12.7 308.07-12.16L308.07-12.16Q306.85-11.91 304.6-11.96L304.6-11.96 299.43-12.11Q299.67-17.72 303.09-19.43L303.09-19.43Q304.21-20.02 305.48-20.02ZM313.98-4.69L313.98-4.69 312.76-5.13Q311.05-1.42 307.24-0.93L307.24-0.93Q306.75-0.88 306.31-0.88L306.31-0.88Q301.19-0.88 299.87-6.98L299.87-6.98Q299.48-8.69 299.43-10.74L299.43-10.74 305.29-10.64Q311.24-10.55 312.95-11.77L312.95-11.77Q314.27-12.74 314.27-14.55L314.27-14.55Q314.27-17.87 310.9-19.82L310.9-19.82Q308.51-21.24 305.38-21.24L305.38-21.24Q299.28-21.24 296.64-16.16L296.64-16.16Q295.28-13.53 295.28-10.21L295.28-10.21Q295.28-4.15 299.62-1.22L299.62-1.22Q302.21 0.49 305.53 0.49L305.53 0.49Q310.8 0.49 313.3-3.32L313.3-3.32Q313.69-4 313.98-4.69Z" opacity="1" transform="matrix(1,0,0,1,0,0)" fill="#383b3e" class="wordmark-text-0" data-fill-palette-color="primary" id="text-0"></path></svg></g></svg></g></svg></g></svg></g><g></g></svg></g></svg></g></svg></g></svg></g><defs></defs></svg><rect width="375.07953" height="117.87250999999992" fill="none" stroke="none" visibility="hidden"></rect></g></svg></g></svg>